<?xml version="1.0" encoding="UTF-8"?>
<svg xmlns="http://www.w3.org/2000/svg" viewBox="0 0 900 650" width="900" height="650">
  <defs>
    <style>
      .title { font: bold 20px 'Segoe UI', sans-serif; fill: #1a1a2e; }
      .subtitle { font: 14px 'Segoe UI', sans-serif; fill: #4a4a6a; }
      .box-text { font: bold 12px 'Segoe UI', sans-serif; fill: white; }
      .box-text-dark { font: bold 12px 'Segoe UI', sans-serif; fill: #1a1a2e; }
      .label { font: 11px 'Segoe UI', sans-serif; fill: #666; }
      .connector { stroke: #ccc; stroke-width: 2; fill: none; }
    </style>
    <linearGradient id="mandatory-grad" x1="0%" y1="0%" x2="100%" y2="100%">
      <stop offset="0%" style="stop-color:#dc3545"/>
      <stop offset="100%" style="stop-color:#c82333"/>
    </linearGradient>
    <linearGradient id="sector-grad" x1="0%" y1="0%" x2="100%" y2="100%">
      <stop offset="0%" style="stop-color:#ffc107"/>
      <stop offset="100%" style="stop-color:#e0a800"/>
    </linearGradient>
    <linearGradient id="voluntary-grad" x1="0%" y1="0%" x2="100%" y2="100%">
      <stop offset="0%" style="stop-color:#28a745"/>
      <stop offset="100%" style="stop-color:#1e7e34"/>
    </linearGradient>
    <linearGradient id="state-grad" x1="0%" y1="0%" x2="100%" y2="100%">
      <stop offset="0%" style="stop-color:#17a2b8"/>
      <stop offset="100%" style="stop-color:#117a8b"/>
    </linearGradient>
    <filter id="shadow" x="-20%" y="-20%" width="140%" height="140%">
      <feDropShadow dx="2" dy="2" stdDeviation="3" flood-opacity="0.2"/>
    </filter>
  </defs>
  
  <!-- Background -->
  <rect width="900" height="650" fill="#f8f9fa"/>
  
  <!-- Title -->
  <text x="450" y="35" text-anchor="middle" class="title">Australian AI Security Framework Hierarchy</text>
  <text x="450" y="55" text-anchor="middle" class="subtitle">Relationship between federal, sector, and state/territory frameworks</text>
  
  <!-- Legend -->
  <g transform="translate(680, 80)">
    <rect x="0" y="0" width="200" height="100" fill="white" stroke="#ddd" rx="5" filter="url(#shadow)"/>
    <text x="100" y="20" text-anchor="middle" class="label" style="font-weight:bold">Legend</text>
    <rect x="10" y="30" width="20" height="12" fill="url(#mandatory-grad)" rx="2"/>
    <text x="35" y="40" class="label">Mandatory (Government)</text>
    <rect x="10" y="48" width="20" height="12" fill="url(#sector-grad)" rx="2"/>
    <text x="35" y="58" class="label">Sector-Specific (Binding)</text>
    <rect x="10" y="66" width="20" height="12" fill="url(#voluntary-grad)" rx="2"/>
    <text x="35" y="76" class="label">Voluntary (All Sectors)</text>
    <rect x="10" y="84" width="20" height="12" fill="url(#state-grad)" rx="2"/>
    <text x="35" y="94" class="label">State/Territory</text>
  </g>
  
  <!-- Federal Mandatory Layer -->
  <g transform="translate(40, 100)">
    <rect width="620" height="90" fill="url(#mandatory-grad)" rx="8" filter="url(#shadow)"/>
    <text x="310" y="25" text-anchor="middle" class="box-text" style="font-size:14px">MANDATORY (Government)</text>
    
    <g transform="translate(15, 40)">
      <rect width="135" height="40" fill="white" fill-opacity="0.2" rx="4"/>
      <text x="67" y="18" text-anchor="middle" class="box-text">ISM</text>
      <text x="67" y="32" text-anchor="middle" class="box-text" style="font-size:10px">AI Controls</text>
    </g>
    <g transform="translate(160, 40)">
      <rect width="135" height="40" fill="white" fill-opacity="0.2" rx="4"/>
      <text x="67" y="18" text-anchor="middle" class="box-text">PSPF</text>
      <text x="67" y="32" text-anchor="middle" class="box-text" style="font-size:10px">AI Provisions</text>
    </g>
    <g transform="translate(305, 40)">
      <rect width="135" height="40" fill="white" fill-opacity="0.2" rx="4"/>
      <text x="67" y="18" text-anchor="middle" class="box-text">SOCI Act</text>
      <text x="67" y="32" text-anchor="middle" class="box-text" style="font-size:10px">CIRMP</text>
    </g>
    <g transform="translate(450, 40)">
      <rect width="155" height="40" fill="white" fill-opacity="0.2" rx="4"/>
      <text x="77" y="18" text-anchor="middle" class="box-text">DTA Policy</text>
      <text x="77" y="32" text-anchor="middle" class="box-text" style="font-size:10px">v2.0</text>
    </g>
  </g>
  
  <!-- Sector-Specific Layer -->
  <g transform="translate(40, 205)">
    <rect width="620" height="90" fill="url(#sector-grad)" rx="8" filter="url(#shadow)"/>
    <text x="310" y="25" text-anchor="middle" class="box-text-dark" style="font-size:14px">SECTOR-SPECIFIC (Binding)</text>
    
    <g transform="translate(15, 40)">
      <rect width="135" height="40" fill="white" fill-opacity="0.3" rx="4"/>
      <text x="67" y="18" text-anchor="middle" class="box-text-dark">APRA</text>
      <text x="67" y="32" text-anchor="middle" class="box-text-dark" style="font-size:10px">CPS 234/230</text>
    </g>
    <g transform="translate(160, 40)">
      <rect width="135" height="40" fill="white" fill-opacity="0.3" rx="4"/>
      <text x="67" y="18" text-anchor="middle" class="box-text-dark">ASIC</text>
      <text x="67" y="32" text-anchor="middle" class="box-text-dark" style="font-size:10px">Report 798</text>
    </g>
    <g transform="translate(305, 40)">
      <rect width="135" height="40" fill="white" fill-opacity="0.3" rx="4"/>
      <text x="67" y="18" text-anchor="middle" class="box-text-dark">eSafety</text>
      <text x="67" y="32" text-anchor="middle" class="box-text-dark" style="font-size:10px">Standards</text>
    </g>
    <g transform="translate(450, 40)">
      <rect width="155" height="40" fill="white" fill-opacity="0.3" rx="4"/>
      <text x="77" y="18" text-anchor="middle" class="box-text-dark">OAIC</text>
      <text x="77" y="32" text-anchor="middle" class="box-text-dark" style="font-size:10px">APP 11</text>
    </g>
  </g>
  
  <!-- Voluntary Layer -->
  <g transform="translate(40, 310)">
    <rect width="620" height="90" fill="url(#voluntary-grad)" rx="8" filter="url(#shadow)"/>
    <text x="310" y="25" text-anchor="middle" class="box-text" style="font-size:14px">VOLUNTARY (All Sectors)</text>
    
    <g transform="translate(15, 40)">
      <rect width="135" height="40" fill="white" fill-opacity="0.2" rx="4"/>
      <text x="67" y="18" text-anchor="middle" class="box-text">ACSC</text>
      <text x="67" y="32" text-anchor="middle" class="box-text" style="font-size:10px">Guidance</text>
    </g>
    <g transform="translate(160, 40)">
      <rect width="135" height="40" fill="white" fill-opacity="0.2" rx="4"/>
      <text x="67" y="18" text-anchor="middle" class="box-text">AI6/NAIC</text>
      <text x="67" y="32" text-anchor="middle" class="box-text" style="font-size:10px">Guidance</text>
    </g>
    <g transform="translate(305, 40)">
      <rect width="135" height="40" fill="white" fill-opacity="0.2" rx="4"/>
      <text x="67" y="18" text-anchor="middle" class="box-text">AI Ethics</text>
      <text x="67" y="32" text-anchor="middle" class="box-text" style="font-size:10px">Principles</text>
    </g>
    <g transform="translate(450, 40)">
      <rect width="155" height="40" fill="white" fill-opacity="0.2" rx="4"/>
      <text x="77" y="18" text-anchor="middle" class="box-text">National</text>
      <text x="77" y="32" text-anchor="middle" class="box-text" style="font-size:10px">Framework</text>
    </g>
  </g>
  
  <!-- State/Territory Layer -->
  <g transform="translate(40, 415)">
    <rect width="820" height="120" fill="url(#state-grad)" rx="8" filter="url(#shadow)"/>
    <text x="410" y="25" text-anchor="middle" class="box-text" style="font-size:14px">STATE/TERRITORY FRAMEWORKS</text>
    
    <!-- State boxes -->
    <g transform="translate(15, 40)">
      <rect width="90" height="65" fill="white" fill-opacity="0.2" rx="4"/>
      <text x="45" y="20" text-anchor="middle" class="box-text">NSW</text>
      <rect x="20" y="30" width="50" height="8" fill="#28a745" rx="2"/>
      <rect x="20" y="41" width="50" height="8" fill="#28a745" rx="2"/>
      <rect x="20" y="52" width="50" height="8" fill="#28a745" rx="2"/>
    </g>
    <g transform="translate(115, 40)">
      <rect width="90" height="65" fill="white" fill-opacity="0.2" rx="4"/>
      <text x="45" y="20" text-anchor="middle" class="box-text">VIC</text>
      <rect x="20" y="30" width="50" height="8" fill="#28a745" rx="2"/>
      <rect x="20" y="41" width="50" height="8" fill="#28a745" rx="2"/>
      <rect x="20" y="52" width="50" height="8" fill="#6c757d" rx="2"/>
    </g>
    <g transform="translate(215, 40)">
      <rect width="90" height="65" fill="white" fill-opacity="0.2" rx="4"/>
      <text x="45" y="20" text-anchor="middle" class="box-text">QLD</text>
      <rect x="20" y="30" width="50" height="8" fill="#28a745" rx="2"/>
      <rect x="20" y="41" width="50" height="8" fill="#28a745" rx="2"/>
      <rect x="20" y="52" width="50" height="8" fill="#6c757d" rx="2"/>
    </g>
    <g transform="translate(315, 40)">
      <rect width="90" height="65" fill="white" fill-opacity="0.2" rx="4"/>
      <text x="45" y="20" text-anchor="middle" class="box-text">SA</text>
      <rect x="20" y="30" width="50" height="8" fill="#28a745" rx="2"/>
      <rect x="20" y="41" width="50" height="8" fill="#6c757d" rx="2"/>
      <rect x="20" y="52" width="50" height="8" fill="#6c757d" rx="2"/>
    </g>
    <g transform="translate(415, 40)">
      <rect width="90" height="65" fill="white" fill-opacity="0.2" rx="4"/>
      <text x="45" y="20" text-anchor="middle" class="box-text">WA</text>
      <rect x="20" y="30" width="50" height="8" fill="#28a745" rx="2"/>
      <rect x="20" y="41" width="50" height="8" fill="#28a745" rx="2"/>
      <rect x="20" y="52" width="50" height="8" fill="#28a745" rx="2"/>
    </g>
    <g transform="translate(515, 40)">
      <rect width="90" height="65" fill="white" fill-opacity="0.2" rx="4"/>
      <text x="45" y="20" text-anchor="middle" class="box-text">TAS</text>
      <rect x="20" y="30" width="50" height="8" fill="#6c757d" rx="2"/>
      <rect x="20" y="41" width="50" height="8" fill="#6c757d" rx="2"/>
      <rect x="20" y="52" width="50" height="8" fill="#6c757d" rx="2"/>
    </g>
    <g transform="translate(615, 40)">
      <rect width="90" height="65" fill="white" fill-opacity="0.2" rx="4"/>
      <text x="45" y="20" text-anchor="middle" class="box-text">NT</text>
      <rect x="20" y="30" width="50" height="8" fill="#28a745" rx="2"/>
      <rect x="20" y="41" width="50" height="8" fill="#6c757d" rx="2"/>
      <rect x="20" y="52" width="50" height="8" fill="#6c757d" rx="2"/>
    </g>
    <g transform="translate(715, 40)">
      <rect width="90" height="65" fill="white" fill-opacity="0.2" rx="4"/>
      <text x="45" y="20" text-anchor="middle" class="box-text">ACT</text>
      <rect x="20" y="30" width="50" height="8" fill="#28a745" rx="2"/>
      <rect x="20" y="41" width="50" height="8" fill="#28a745" rx="2"/>
      <rect x="20" y="52" width="50" height="8" fill="#6c757d" rx="2"/>
    </g>
  </g>
  
  <!-- Maturity Legend -->
  <g transform="translate(40, 550)">
    <text x="0" y="15" class="label" style="font-weight:bold">State Maturity:</text>
    <rect x="100" y="5" width="12" height="12" fill="#28a745" rx="2"/>
    <text x="117" y="15" class="label">Comprehensive</text>
    <rect x="200" y="5" width="12" height="12" fill="#28a745" rx="2"/>
    <rect x="215" y="5" width="12" height="12" fill="#28a745" rx="2"/>
    <rect x="230" y="5" width="12" height="12" fill="#6c757d" rx="2"/>
    <text x="247" y="15" class="label">Developing</text>
    <rect x="320" y="5" width="12" height="12" fill="#28a745" rx="2"/>
    <rect x="335" y="5" width="12" height="12" fill="#6c757d" rx="2"/>
    <rect x="350" y="5" width="12" height="12" fill="#6c757d" rx="2"/>
    <text x="367" y="15" class="label">Basic</text>
    <rect x="410" y="5" width="12" height="12" fill="#6c757d" rx="2"/>
    <rect x="425" y="5" width="12" height="12" fill="#6c757d" rx="2"/>
    <rect x="440" y="5" width="12" height="12" fill="#6c757d" rx="2"/>
    <text x="457" y="15" class="label">Minimal</text>
  </g>
  
  <!-- Connectors -->
  <path d="M 350 190 L 350 205" class="connector" stroke-dasharray="5,3"/>
  <path d="M 350 295 L 350 310" class="connector" stroke-dasharray="5,3"/>
  <path d="M 350 400 L 350 415" class="connector" stroke-dasharray="5,3"/>
  
  <!-- Footer -->
  <text x="450" y="630" text-anchor="middle" class="label">Australian AI Security Framework Index | CC BY 4.0 | December 2025</text>
</svg>
